<svg fill="#000000" xmlns="http://www.w3.org/2000/svg"  viewBox="0 0 64 64" width="48px" height="48px" baseProfile="basic"><path d="M18,26h-3c-0.552,0-1,0.449-1,1v19c0,1.103,0.897,2,2,2s2-0.897,2-2V26z M49,16H23c-0.552,0-1,0.449-1,1v29	c0,0.701-0.121,1.374-0.343,2H48c1.103,0,2-0.897,2-2V17C50,16.449,49.552,16,49,16z M49,12c2.757,0,5,2.243,5,5v29	c0,3.309-2.691,6-6,6H16c-3.309,0-6-2.691-6-6V27c0-2.757,2.243-5,5-5h3v-5c0-2.757,2.243-5,5-5H49z"/><path d="M45,41c1.104,0,2,0.895,2,2c0,1.105-0.896,2-2,2c-0.601,0-4.399,0-5,0c-1.104,0-2-0.895-2-2c0-1.105,0.896-2,2-2	C40.601,41,44.399,41,45,41z"/><path d="M45,34c1.104,0,2,0.895,2,2c0,1.105-0.896,2-2,2c-0.601,0-4.399,0-5,0c-1.104,0-2-0.895-2-2c0-1.105,0.896-2,2-2	C40.601,34,44.399,34,45,34z"/><path d="M45,27c1.104,0,2,0.895,2,2c0,1.105-0.896,2-2,2c-0.601,0-17.399,0-18,0c-1.104,0-2-0.895-2-2c0-1.105,0.896-2,2-2	C27.601,27,44.399,27,45,27z"/><path d="M45,20c1.104,0,2,0.895,2,2c0,1.105-0.896,2-2,2c-0.601,0-17.399,0-18,0c-1.104,0-2-0.895-2-2c0-1.105,0.896-2,2-2	C27.601,20,44.399,20,45,20z"/><path d="M33,34c1.105,0,2,0.895,2,2v7c0,1.105-0.895,2-2,2h-6c-1.105,0-2-0.895-2-2v-7c0-1.105,0.895-2,2-2H33z"/></svg>