<svg width="146" height="145" viewBox="0 0 146 145" fill="none" xmlns="http://www.w3.org/2000/svg">
<path d="M62.8294 2.18059C48.474 4.12651 34.8236 10.8724 24.0571 21.3804C9.44538 35.4559 2.33179 52.3206 2.2677 72.5582C2.2677 89.7472 6.43332 102.59 16.3667 115.952C24.762 127.239 35.08 134.957 48.0895 139.822C56.613 143.066 61.4195 143.844 72.4424 143.844C83.4011 143.844 87.9513 143.13 96.2184 139.952C119.93 130.936 137.234 109.271 141.015 84.0391C143.322 68.7312 141.463 56.0827 134.991 42.072C125.826 22.4182 107.177 7.5643 85.9646 3.02382C80.1327 1.7914 68.5972 1.33734 62.8294 2.18059ZM82.0553 4.96974C115.06 10.2237 139.413 38.9585 139.413 72.7528C139.413 104.666 117.944 132.428 87.3745 139.952C80.9659 141.574 67.0591 141.898 60.7145 140.666C33.7341 135.412 12.9701 115.758 6.49741 89.358C1.88318 70.6123 5.6002 49.9855 16.4949 33.6397C22.2627 25.1425 33.1574 15.6075 42.0654 11.3913C55.7799 4.84001 68.3408 2.82922 82.0553 4.96974Z" fill="#067499"/>
<path d="M66.995 8.01811C66.995 8.34268 67.3154 8.47251 67.6359 8.27776C68.0204 8.08302 68.2767 7.75845 68.2767 7.56371C68.2767 7.43388 68.0204 7.30405 67.6359 7.30405C67.3154 7.30405 66.995 7.62862 66.995 8.01811Z" fill="#067499"/>
<path d="M67.1232 9.05618C65.521 9.25077 65.0724 9.57509 65.3288 10.3535C65.521 10.8724 65.7133 12.2994 65.7133 13.5318C65.7133 15.4777 65.9056 15.7372 67.5077 15.7372C68.469 15.7372 69.6867 15.4129 70.1993 15.0885C70.9043 14.6345 70.648 14.4399 69.1099 14.4399C66.6746 14.4399 66.1619 12.7534 68.469 12.2994C69.6867 12.0399 69.6226 12.0399 68.1486 11.9102C65.5851 11.7805 65.7133 9.89941 68.2768 9.89941C69.3662 9.89941 70.1993 9.57509 70.1993 9.25077C70.1993 8.86158 70.0071 8.66699 69.7507 8.73186C69.4303 8.73186 68.2768 8.92645 67.1232 9.05618Z" fill="#067499"/>
<path d="M75.0699 10.6778C74.4931 13.0129 74.6213 15.7372 75.3262 15.7372C75.7108 15.7372 75.9671 14.9588 75.9671 14.0507C75.9671 12.6886 76.2235 12.494 77.2488 12.8183C77.9538 13.0778 78.5306 12.948 78.5306 12.5588C78.5306 12.1697 77.9538 11.8453 77.2488 11.8453C75.3262 11.8453 75.7108 10.0291 77.7615 9.70482C79.4278 9.44536 79.4278 9.44536 77.5052 9.31563C75.903 9.25077 75.3903 9.57509 75.0699 10.6778Z" fill="#067499"/>
<path d="M58.8561 10.9373C58.4075 12.1697 60.2019 13.7913 61.9963 13.7913C62.6372 13.7913 63.1499 14.1156 63.1499 14.4399C63.1499 15.6075 61.2914 15.9318 60.1378 15.0237C59.2406 14.2453 59.1124 14.2453 59.4329 15.0886C59.6251 15.6723 60.5223 16.0615 61.6118 16.0615C63.1499 16.0615 63.4703 15.8021 63.4703 14.4399C63.4703 13.1426 63.0858 12.7535 61.74 12.6237C60.6505 12.494 59.9456 12.0399 59.9456 11.3913C59.9456 10.6778 60.3301 10.4832 61.6118 10.8075C62.7013 11.1318 63.0858 11.0021 62.8295 10.5481C62.1886 9.51024 59.3047 9.7697 58.8561 10.9373Z" fill="#067499"/>
<path d="M80.9018 13.1426C79.8764 14.9588 79.3638 16.3858 79.7483 16.3858C80.0687 16.3858 80.5814 16.0615 80.7737 15.7371C81.4145 14.6993 83.5294 14.9588 84.2343 16.1912C84.5548 16.8398 85.0034 17.1642 85.1956 17.0344C85.7083 16.5155 84.0421 10.3534 83.3371 10.094C82.9526 9.96424 81.8631 11.3913 80.9018 13.1426ZM83.3371 13.7264C82.7603 14.7642 81.735 13.921 82.1836 12.7534C82.4399 12.1048 82.7603 11.975 83.1449 12.3642C83.5294 12.7534 83.5935 13.3372 83.3371 13.7264Z" fill="#067499"/>
<path d="M52.2551 12.3642C49.3712 14.7642 52.4473 19.3696 55.8439 17.748C57.6383 16.9047 57.9588 13.7912 56.3566 12.2345C55.0749 10.8724 53.9854 10.9372 52.2551 12.3642ZM55.7798 14.7642C55.7798 16.2561 55.4594 16.775 54.3699 16.9047C53.2805 17.0993 52.8319 16.7101 52.5114 15.4777C51.9987 13.4021 52.7037 12.3642 54.3699 12.6237C55.4594 12.7534 55.7798 13.2723 55.7798 14.7642Z" fill="#067499"/>
<path d="M87.5668 13.8561C86.99 15.8669 86.9259 16.7101 87.5668 17.4236C88.7204 18.8506 91.2838 18.5263 91.9247 16.8398C93.0782 13.6615 93.3346 12.494 92.7578 12.494C92.4374 12.494 91.8606 13.6615 91.412 15.1534C90.8352 17.0344 90.3225 17.6831 89.5535 17.5534C88.3999 17.2939 88.1436 15.2182 89.0408 12.6237C89.2971 11.8453 89.233 11.1967 88.9126 11.1967C88.5922 11.1967 88.0154 12.3642 87.5668 13.8561Z" fill="#067499"/>
<path d="M48.0895 14.8939C48.2818 15.5426 48.6663 16.9047 48.8585 17.9426C49.179 19.629 49.1149 19.7588 47.7691 19.3047C46.8078 18.9804 46.4873 19.0453 46.7437 19.5642C47.3205 20.4723 49.4994 20.4723 50.0762 19.5642C50.5889 18.6561 49.0508 13.7913 48.2177 13.7913C47.8972 13.7913 47.8332 14.3102 48.0895 14.8939Z" fill="#067499"/>
<path d="M94.8086 15.4128C94.5522 16.0615 94.9368 16.9696 95.7699 17.7479C96.5389 18.4614 96.9875 19.3047 96.7953 19.6939C96.2185 20.5371 96.0262 20.4722 94.5522 18.8506C93.5909 17.8128 93.2705 17.6831 93.2705 18.3966C93.2705 19.8236 94.6163 20.9263 96.2185 20.9263C98.2693 20.9263 98.7179 19.0452 97.0516 17.229C95.2572 15.4128 95.9621 14.4399 97.8206 16.1263C99.1665 17.3587 99.1665 17.3587 98.9742 16.0615C98.6538 14.375 95.3854 13.8561 94.8086 15.4128Z" fill="#067499"/>
<path d="M100.961 16.9696C100.961 17.2939 101.345 17.6831 101.73 17.8129C102.371 18.0723 102.243 18.721 101.281 20.4723C99.6791 23.5858 100.384 24.2344 102.179 21.1858C103.076 19.6939 103.909 18.9804 104.486 19.2399C106.472 19.9534 105.383 18.5264 103.204 17.4885C101.986 16.9048 100.961 16.6453 100.961 16.9696Z" fill="#067499"/>
<path d="M60.2659 18.7858C43.4753 22.4182 28.6713 34.9369 21.814 51.4124C18.4815 59.3907 17.4562 65.2934 17.8407 74.6987C18.4175 89.5526 23.0958 101.034 32.5806 110.958C43.5393 122.374 56.4848 128.017 71.8015 128.147C87.759 128.212 99.615 123.087 111.279 111.087C119.418 102.72 124.16 92.7958 125.954 80.4716C128.326 64.3204 123.327 48.1044 111.92 35.0667C104.87 27.0235 92.8218 20.4074 81.4785 18.3966C76.1593 17.4236 65.5851 17.6182 60.2659 18.7858ZM81.0299 19.6939C88.7844 20.9263 97.5001 24.6235 103.652 29.164C105.319 30.3965 108.908 33.7694 111.599 36.6883C117.495 43.1098 122.686 53.1638 124.288 61.2718C126.531 72.3636 125.314 84.2337 120.892 95.0011C111.471 117.833 85.6441 131.39 61.7399 126.006C44.2443 122.114 29.4403 109.79 23.0317 93.7039C20.0196 86.0499 19.2506 82.0283 19.2506 72.8176C19.2506 62.9583 19.8914 59.6502 23.3521 51.4124C30.4016 34.8721 43.9239 23.7803 62.1885 19.6939C65.7773 18.8506 76.1593 18.8506 81.0299 19.6939Z" fill="#067499"/>
<path d="M62.1886 50.5692C61.9322 52.6449 61.6118 54.7854 61.4836 55.3043C61.2913 56.1476 62.1886 56.3421 67.5077 56.2773C70.9043 56.2773 74.4932 56.4719 75.4545 56.7313L77.1207 57.2502L76.8003 53.1638C76.608 50.9584 76.2235 48.9476 76.0312 48.6233C75.7749 48.3639 73.9805 49.5963 71.9938 51.4125L68.4049 54.6557L65.5211 50.699L62.6372 46.7423L62.1886 50.5692Z" fill="#067499"/>
<path d="M84.6188 52.0611C83.5934 52.3205 81.9271 52.7746 80.9658 52.9692C78.6587 53.4881 78.6587 54.5259 80.9017 54.7854C83.0807 55.0448 83.8497 57.2502 81.799 57.2502C81.0299 57.2502 80.4531 57.5097 80.4531 57.8988C80.4531 58.288 82.4398 58.5475 85.1315 58.5475C90.3865 58.5475 92.8859 59.5205 93.1423 61.7258C93.5909 64.8393 88.9766 67.3042 81.1581 68.0177C76.672 68.4068 76.608 68.2123 80.7736 65.4231C81.9912 64.5799 81.863 64.515 79.3637 63.1528C75.0058 60.9475 69.7507 59.7799 66.8668 60.4286C58.5356 62.3745 56.1003 69.1852 62.3167 73.2717C63.7266 74.2446 65.4569 74.4392 71.6092 74.4392C75.7748 74.4392 79.1714 74.2446 79.1714 74.05C79.1714 73.7906 78.7228 73.2717 78.2101 72.8176C76.8002 71.6501 77.5052 71.1311 80.9017 70.6122C85.8364 69.9636 92.6937 67.4339 94.6803 65.6177C96.667 63.6718 96.9234 61.9853 95.5135 59.261C94.6803 57.5745 94.6803 57.3151 95.8339 56.2772C97.4361 54.7854 97.5001 52.9692 95.898 52.0611C94.424 51.2827 87.4386 51.2827 84.6188 52.0611ZM89.0407 53.0989C89.6175 53.2935 90.0661 54.007 90.0661 54.6556C90.0661 56.5367 85.9646 57.3799 84.4265 55.8232C83.8497 55.2394 83.9138 54.7854 84.7469 53.8773C85.8364 52.6449 87.2463 52.3854 89.0407 53.0989ZM69.6225 65.4231C70.712 65.942 71.481 66.7852 71.2888 67.1744C70.712 69.0555 65.2647 70.2879 63.278 68.9906C61.9962 68.2123 62.6371 66.1366 64.4315 65.2285C66.5464 64.1258 67.3154 64.1907 69.6225 65.4231Z" fill="#067499"/>
<path d="M85.5801 54.6557C85.5801 54.98 86.285 55.3043 87.1822 55.3043C88.0795 55.3043 88.7844 54.98 88.7844 54.6557C88.7844 54.2665 88.0795 54.007 87.1822 54.007C86.285 54.007 85.5801 54.2665 85.5801 54.6557Z" fill="#067499"/>
<path d="M64.4315 66.9799C64.4315 67.3042 65.3287 67.6285 66.3541 67.6285C67.4436 67.6285 68.2767 67.3042 68.2767 66.9799C68.2767 66.5907 67.4436 66.3313 66.3541 66.3313C65.3287 66.3313 64.4315 66.5907 64.4315 66.9799Z" fill="#067499"/>
<path d="M38.4766 55.1746C37.5153 56.9908 36.7462 57.6394 35.2723 57.7691C31.2989 58.0934 30.4658 58.5475 30.4658 60.1042C30.4658 60.9475 30.2735 62.5042 30.0813 63.6069C29.7608 65.2934 29.3122 65.6825 27.1333 66.0069L24.5698 66.4609L25.0825 69.5095C25.5952 72.3636 25.5952 76.5797 25.2107 79.9527C25.0825 81.1851 25.5311 81.8337 27.7741 83.0661C30.1453 84.4283 30.4658 84.8175 30.4658 86.958C30.4658 90.6552 31.1066 91.3039 33.9905 90.3309C36.4899 89.4877 37.4512 90.0066 37.5153 92.2769C37.5153 92.7958 37.8357 94.3525 38.2202 95.7147L38.8611 98.1146L40.5914 96.039C41.5527 94.8714 42.8345 93.3147 43.4112 92.666C44.7571 91.1742 44.5007 90.6552 41.4246 89.0336C37.7075 87.1526 31.8757 81.3797 30.1453 78.0716C28.8636 75.477 28.7354 74.6338 29.2481 71.6501C29.5045 69.769 30.4017 67.1096 31.1707 65.8123C32.7729 63.1528 35.6568 60.4286 36.4258 60.9475C36.6822 61.0772 36.8103 60.8826 36.7462 60.4286C36.4899 59.3259 40.9119 58.0286 44.8852 57.9637C47.705 57.8988 51.422 58.7421 55.0109 60.1691C56.3567 60.7529 56.4208 59.1961 55.2672 56.3421L54.4982 54.4611L52.4474 56.2124L50.4607 57.8988L48.41 55.3043L46.3592 52.7097L45.2057 54.1367L44.0521 55.6286L42.0654 54.1367C41.04 53.3584 40.0787 52.7097 39.9506 52.7097C39.8224 52.7097 39.1815 53.8124 38.4766 55.1746Z" fill="#067499"/>
<path d="M61.6758 57.6394C61.4835 57.9637 63.9829 58.2232 67.1872 58.2232C70.4556 58.2232 74.1086 58.4178 75.3262 58.7421C77.0565 59.1313 77.377 59.0664 76.7361 58.4178C75.7748 57.4448 62.2526 56.7962 61.6758 57.6394Z" fill="#067499"/>
<path d="M38.4124 61.9854C30.9143 65.6177 29.248 73.596 34.7595 79.4338C37.4511 82.3527 42.8985 84.8175 40.7195 82.223C40.2709 81.6392 39.8864 80.277 39.8864 79.1095C39.8864 77.9419 39.7582 77.5528 39.63 78.1365C39.2455 79.6284 38.861 79.6284 36.5539 77.7473C34.9517 76.4501 34.6313 75.7366 34.6313 73.3366C34.6313 69.4447 35.9771 66.7204 38.7328 64.7745C41.9372 62.5043 47.1922 62.5043 52.5114 64.7097C54.6263 65.5529 56.4848 66.1367 56.613 66.0069C57.5743 65.0988 55.5876 63.607 51.7424 62.5043C44.5006 60.2989 42.1294 60.234 38.4124 61.9854Z" fill="#067499"/>
<path d="M106.216 69.1204C105.767 69.6393 105.831 70.4176 106.408 71.5203C107.69 73.7906 107.562 74.9581 106.024 76.9689C104.037 79.5635 105.062 79.7581 107.305 77.2284C108.587 75.8014 109.292 75.4122 109.292 76.1257C109.292 76.6446 108.587 77.8122 107.69 78.6554C106.793 79.4986 106.088 80.6013 106.088 81.0554C106.088 81.5743 107.113 80.9905 108.523 79.6932C109.805 78.3959 110.958 77.6824 111.086 78.0067C111.215 78.3311 110.317 79.4338 109.164 80.5364C106.729 82.7418 106.985 83.9094 109.484 81.8986C110.382 81.1851 111.343 80.6013 111.663 80.6013C111.984 80.6013 113.394 81.7689 114.739 83.1959C120.059 88.7093 122.173 85.1418 117.687 78.2662C113.458 71.6501 107.754 67.1744 106.216 69.1204Z" fill="#067499"/>
<path d="M41.9372 74.1798L40.3992 75.4771L42.3218 74.3744C44.8211 72.8176 44.8852 72.8176 44.1162 72.8176C43.7317 72.8176 42.7704 73.4014 41.9372 74.1798Z" fill="#067499"/>
<path d="M42.7703 76.2554C40.9118 78.2013 40.9758 80.277 42.9625 82.2229C45.8464 85.2067 50.9733 83.5851 50.9733 79.6932C50.9733 75.4122 45.6542 73.1419 42.7703 76.2554ZM48.2817 76.45C49.8198 77.5527 50.2043 80.4716 48.9226 81.7689C47.8331 82.8715 44.2443 82.7418 43.347 81.6391C42.0653 80.0824 42.7703 77.1635 44.5647 76.2554C46.6155 75.2176 46.5514 75.2176 48.2817 76.45Z" fill="#067499"/>
<path d="M44.8211 78.9798C44.5648 79.5635 44.6929 80.3419 45.0775 80.7311C46.0388 81.7041 47.8973 80.796 47.6409 79.4987C47.3846 78.0068 45.3338 77.6176 44.8211 78.9798Z" fill="#067499"/>
<path d="M59.9455 86.4391C59.9455 95.7147 59.8815 96.1687 58.6638 96.1687C57.9589 96.1687 57.3821 96.6227 57.3821 97.1417C57.3821 97.92 58.2152 98.1146 61.2273 98.1146C64.0471 98.1146 65.0725 97.8552 65.0725 97.2065C65.0725 96.7525 64.4957 96.1687 63.7907 95.9741C62.7013 95.7147 62.509 95.066 62.509 92.4714C62.509 89.4228 62.6372 89.1634 65.1365 87.5418C67.8923 85.7256 68.0204 85.7256 71.2888 88.3201C73.0833 89.7471 73.4037 90.3958 73.4037 92.7958C73.4037 95.066 73.1473 95.7147 72.122 95.9741C71.417 96.1687 70.8402 96.7525 70.8402 97.2065C70.8402 97.8552 71.8015 98.1146 74.365 98.1146C77.4411 98.1146 77.8897 97.9849 77.8897 96.8173C77.8897 96.039 77.4411 95.5201 76.8003 95.5201C75.7749 95.5201 75.6467 94.6768 75.4545 87.9958C75.3263 81.5743 75.4545 80.4716 76.2235 80.7959C76.7362 80.9905 80.3891 83.5202 84.2343 86.4391C88.1436 89.2931 91.7965 91.6282 92.3733 91.6282C92.9501 91.6282 94.1677 91.0444 95.0649 90.3958C96.0262 89.7471 96.9234 89.2282 97.1157 89.2282C97.6925 89.2931 100.961 86.958 100.961 86.4391C100.961 86.1796 100.448 85.2715 99.8073 84.4932L98.7178 83.0661L95.4494 85.7256L92.181 88.3201L84.2984 82.5472L76.4158 76.7095H68.2127H59.9455V86.4391ZM74.0446 81.8986C74.0446 84.1688 73.7882 85.7904 73.3396 85.7904C73.0192 85.7904 71.5452 85.1418 70.1353 84.2986L67.6359 82.8715L65.1365 84.2986C63.7266 85.1418 62.2527 85.7904 61.9322 85.7904C61.4836 85.7904 61.2273 84.1688 61.2273 81.8986V78.0067H67.6359H74.0446V81.8986Z" fill="#067499"/>
<path d="M62.5089 81.5742C62.5089 82.8067 62.6371 83.8445 62.7653 83.8445C62.9575 83.8445 64.1111 83.2607 65.3287 82.4823L67.6358 81.1202L69.8789 82.4823L72.1219 83.7796V81.5742V79.304H67.3154H62.5089V81.5742Z" fill="#067499"/>
<path d="M52.3192 80.9905C52.3192 81.704 52.5119 81.8986 52.7046 81.3797C52.8972 80.9256 52.833 80.3419 52.6403 80.1473C52.4477 79.8878 52.255 80.277 52.3192 80.9905Z" fill="#067499"/>
<path d="M101.345 81.1851C100.897 81.8986 102.371 85.0121 103.396 85.4662C103.845 85.5959 104.037 85.4662 103.845 85.1418C103.652 84.7527 103.781 84.4932 104.165 84.4932C104.55 84.4932 104.486 83.7797 103.845 82.5473C102.819 80.6013 101.986 80.0824 101.345 81.1851Z" fill="#067499"/>
<path d="M50.3966 83.8445C48.7303 85.2715 45.2697 85.531 43.0907 84.4283C41.7449 83.7796 41.7449 83.8445 43.1548 84.9472C43.9879 85.6607 46.3591 89.2282 48.474 92.9255L52.2551 99.7362L52.1269 91.1741C51.9987 86.4391 51.9347 82.5472 51.9347 82.5472C51.9347 82.6121 51.2297 83.1958 50.3966 83.8445ZM50.9734 90.785L50.9093 95.1957L48.7303 91.3039C46.5514 87.412 46.5514 87.412 47.9613 86.958C50.9093 86.1147 50.9734 86.2445 50.9734 90.785Z" fill="#067499"/>
<path d="M37.5153 19.3696C37.5153 19.6291 38.1561 20.9263 38.9252 22.2885C40.271 24.6885 40.3351 24.7533 42.1295 23.7804C44.3725 22.6128 44.4366 22.0939 42.3217 22.6128C41.04 22.9371 40.5273 22.6777 39.6301 20.9912C38.6047 19.175 37.5153 18.3318 37.5153 19.3696Z" fill="#067499"/>
<path d="M105.191 22.6776C103.524 25.0776 103.46 26.2452 104.934 24.9479C106.28 23.8452 108.139 20.2777 107.434 20.2777C107.049 20.2777 106.024 21.3804 105.191 22.6776Z" fill="#067499"/>
<path d="M32.6446 23.9101C32.901 24.883 33.4778 26.5695 33.9905 27.6722C34.6954 29.2938 34.8877 29.4235 34.8877 28.3208C34.9518 26.5695 36.5539 25.2073 37.8356 25.7263C39.8864 26.5046 38.6688 24.7533 36.2335 23.5209C32.8369 21.7695 32.132 21.8344 32.6446 23.9101ZM35.2722 24.1695C35.4644 24.4938 35.4644 25.1425 35.2081 25.5317C34.8236 26.2452 33.7341 25.1425 33.67 23.9749C33.67 23.3263 34.8236 23.3912 35.2722 24.1695Z" fill="#067499"/>
<path d="M107.754 24.2343C106.857 25.337 106.088 26.5694 106.088 26.9586C106.152 27.4127 106.665 27.0883 107.305 26.2451C108.972 24.2343 109.42 24.4289 108.972 27.0235C108.331 30.2018 109.42 30.3315 111.791 27.4127C114.034 24.5586 113.778 23.9749 111.407 26.2451L109.869 27.6721L110.317 24.9478C110.83 21.6397 110.061 21.4452 107.754 24.2343Z" fill="#067499"/>
<path d="M28.5432 25.9208C28.5432 26.1803 29.1841 27.0235 29.9531 27.8667C31.4271 29.4883 30.9144 29.7478 28.2228 28.71C25.4671 27.6721 25.0825 28.71 27.3256 31.0451C29.5045 33.3153 31.4912 34.2234 29.6327 32.0829C27.9664 30.2667 28.2869 29.9424 31.2989 30.3964L33.9906 30.8505L32.3884 28.9694C29.6327 25.7911 29.3122 25.4668 28.9277 25.4668C28.7355 25.4668 28.5432 25.6614 28.5432 25.9208Z" fill="#067499"/>
<path d="M112.881 29.0991C110.958 31.0451 112.304 34.5477 114.996 34.5477C117.495 34.5477 119.225 30.591 117.495 28.8397C116.406 27.737 114.034 27.8667 112.881 29.0991ZM116.918 29.8126C117.751 31.4343 116.662 33.2504 114.804 33.2504C112.881 33.2504 112.304 31.8234 113.522 30.0721C114.675 28.4505 116.085 28.3208 116.918 29.8126Z" fill="#067499"/>
<path d="M22.2627 32.7315C21.1092 33.8991 21.3655 36.1693 22.7754 37.4666C25.6593 40.0612 29.5045 36.1693 26.941 33.2504C25.6593 31.8234 23.4163 31.564 22.2627 32.7315ZM25.5952 33.445C27.1974 34.6775 26.6847 36.818 24.7621 36.818C22.7113 36.818 21.6219 35.0018 22.7113 33.6396C23.7367 32.4072 24.1212 32.3424 25.5952 33.445Z" fill="#067499"/>
<path d="M121.276 36.2992C121.02 36.4937 120.828 37.7262 120.828 38.8937C120.828 40.4505 120.571 41.0342 120.059 40.8396C119.61 40.7099 119.29 39.9315 119.354 39.1532C119.482 38.4397 119.225 37.791 118.905 37.791C117.88 37.791 118.136 40.7748 119.225 41.6829C120.892 43.1099 122.302 41.9423 121.981 39.4126C121.789 37.8559 121.981 37.1424 122.558 37.1424C123.007 37.1424 123.391 37.7262 123.391 38.4397C123.391 39.1532 123.712 39.737 124.032 39.737C124.865 39.737 124.865 38.6991 124.032 37.0775C123.327 35.8451 122.045 35.4559 121.276 36.2992Z" fill="#067499"/>
<path d="M18.6739 37.7262C18.4816 38.0505 19.4429 39.0234 20.8528 39.9964C23.6085 41.8126 24.0571 42.0072 24.0571 41.0991C24.0571 40.2559 19.0584 37.0775 18.6739 37.7262Z" fill="#067499"/>
<path d="M16.6872 41.4234C15.2132 42.9153 15.7259 45.0558 17.7767 46.2233C19.1225 46.9368 19.8274 47.0017 20.6606 46.4828C21.9423 45.7044 22.5832 42.3315 21.4937 42.3315C21.0451 42.3315 20.9169 42.8504 21.1733 43.5639C21.6219 45.1206 20.5965 45.8342 18.5457 45.3152C16.8154 44.8612 16.3668 42.5261 17.9689 41.9423C18.9943 41.4883 19.3148 40.3856 18.3535 40.3856C18.033 40.3856 17.264 40.8396 16.6872 41.4234Z" fill="#067499"/>
<path d="M124.545 43.1099C122.494 43.4991 120.828 44.0828 120.828 44.4072C120.828 44.7315 121.084 44.8612 121.404 44.6017C122.366 44.018 124.096 46.9369 123.327 47.9098C123.007 48.3639 122.942 48.8828 123.199 49.0125C123.519 49.2071 124.737 47.9098 125.955 46.2233C127.236 44.472 128.582 43.1747 129.031 43.3045C129.479 43.4991 129.672 43.3045 129.479 42.9801C129.287 42.591 128.903 42.3964 128.646 42.3964C128.39 42.4612 126.531 42.7855 124.545 43.1099ZM125.634 44.9261C125.442 45.2504 124.993 45.5747 124.609 45.5747C124.288 45.5747 124.032 45.2504 124.032 44.9261C124.032 44.5369 124.481 44.2774 125.057 44.2774C125.57 44.2774 125.826 44.5369 125.634 44.9261Z" fill="#067499"/>
<path d="M126.467 49.2719C125.121 49.7908 124.032 50.5043 124.032 50.8287C124.032 51.2178 124.545 51.153 125.25 50.7638C127.493 49.5962 128.005 50.0503 126.66 51.9962C124.993 54.2665 124.993 54.6556 126.467 54.6556C127.749 54.5908 132.427 52.1259 131.21 52.0611C130.761 52.0611 129.8 52.3854 129.095 52.7097C127.557 53.5529 127.364 51.9962 128.838 50.7638C129.864 49.9206 130.184 48.1692 129.351 48.2341C129.031 48.2341 127.749 48.6881 126.467 49.2719Z" fill="#067499"/>
<path d="M12.9061 49.3369C12.7138 49.6612 13.6751 51.0233 15.0209 52.3206C16.4308 53.7476 17.6485 54.4611 17.9048 54.1368C18.0971 53.7476 18.033 53.2936 17.6485 53.0341C16.6872 52.4503 16.8794 51.5422 18.2894 50.1152L19.5711 48.818H16.4308C14.6364 48.818 13.0983 49.0774 12.9061 49.3369ZM16.3668 50.5044C16.3668 51.4125 16.1745 51.4125 15.4055 50.7639C14.8928 50.3098 14.4442 49.8558 14.4442 49.7261C14.4442 49.5963 14.8928 49.4666 15.4055 49.4666C15.9182 49.4666 16.3668 49.9206 16.3668 50.5044Z" fill="#067499"/>
<path d="M11.2398 54.5908C11.2398 54.98 11.7525 55.3044 12.3934 55.3044C14.5083 55.3044 14.5723 56.2125 12.5857 56.926C9.82994 57.8341 10.0222 58.7422 13.2265 59.6503C16.4949 60.6232 17.4562 60.1692 14.3801 59.0665L12.2652 58.353L14.4442 57.5746C17.1999 56.6016 17.5844 55.5638 15.2773 55.0449C14.316 54.7854 12.9702 54.4611 12.3934 54.2665C11.7525 54.0719 11.2398 54.2017 11.2398 54.5908Z" fill="#067499"/>
<path d="M127.3 56.861C126.275 58.0934 126.852 60.8826 128.198 61.4015C129.287 61.7907 129.543 60.8177 128.518 60.1691C127.493 59.5204 127.749 57.4448 128.902 56.9907C129.479 56.7313 130.569 56.7313 131.21 56.9907C132.171 57.2502 132.363 57.7691 132.107 58.9367C131.85 59.8447 131.979 60.4934 132.363 60.4934C132.812 60.4934 133.004 59.5853 132.876 58.3529C132.684 56.4718 132.491 56.2772 130.376 56.0826C128.902 55.9529 127.813 56.2124 127.3 56.861Z" fill="#067499"/>
<path d="M131.402 62.8934C128.198 63.3474 127.364 63.8663 129.159 64.3204C131.21 64.9042 131.658 66.9149 129.864 67.4339C127.364 68.0825 128.518 68.7311 131.402 68.2771C134.734 67.7582 135.952 66.9798 133.453 66.9798C132.043 66.9798 131.722 66.6555 131.722 65.3582C131.722 64.1907 132.043 63.7366 133.004 63.7366C133.709 63.7366 134.286 63.4123 134.286 63.088C134.286 62.6988 134.093 62.5042 133.837 62.5042C133.517 62.5691 132.491 62.7636 131.402 62.8934Z" fill="#067499"/>
<path d="M9.5735 64.9042C9.1249 65.1636 8.67629 66.2015 8.61221 67.3042C8.35586 69.1204 8.48403 69.2501 11.2398 69.7041C13.2264 70.0285 14.1877 69.9636 14.5722 69.3798C15.3413 68.2123 15.2131 66.0717 14.3159 65.1636C13.4828 64.3204 10.663 64.1258 9.5735 64.9042ZM13.2264 65.6826C13.5469 65.6826 13.8032 66.4609 13.8032 67.369C13.8032 68.796 13.6109 68.9906 12.3933 68.6663C11.5602 68.4717 10.5348 68.2771 10.1503 68.2771C9.70168 68.2771 9.31716 67.8879 9.31716 67.4339C9.31716 66.2015 10.7271 64.9691 11.7524 65.3582C12.2651 65.5528 12.906 65.6826 13.2264 65.6826Z" fill="#067499"/>
<path d="M128.646 73.2717C128.71 75.6717 128.71 75.6717 128.967 73.596C129.287 71.1312 131.082 70.6771 131.082 73.0771C131.082 73.9852 131.402 74.8933 131.722 75.0879C132.107 75.3474 132.363 74.6339 132.363 73.4663C132.363 72.1042 132.62 71.5204 133.196 71.715C133.581 71.8447 133.965 72.7528 133.965 73.6609C133.901 74.6339 134.158 75.4122 134.414 75.4122C134.67 75.4122 134.927 74.3744 134.927 73.142V70.8717H131.722H128.518L128.646 73.2717Z" fill="#067499"/>
<path d="M11.0476 72.9474C9.38134 73.6609 8.03552 74.5041 8.03552 74.7636C8.03552 75.3474 13.0984 77.3582 14.4442 77.3582C15.1491 77.2933 15.1491 77.1636 14.316 76.6446C12.9702 75.8663 12.7779 73.0771 13.9956 72.6231C14.3801 72.4933 14.6364 72.169 14.4442 71.9744C14.2519 71.7798 12.7138 72.2339 11.0476 72.9474ZM12.5216 74.7636C12.5216 75.0879 12.1371 75.4122 11.6244 75.4122C11.1117 75.4122 10.4708 75.0879 10.2785 74.7636C10.0863 74.3744 10.4708 74.1149 11.1758 74.1149C11.9448 74.1149 12.5216 74.3744 12.5216 74.7636Z" fill="#067499"/>
<path d="M128.133 78.9797C127.941 80.277 127.877 81.5094 128.133 81.704C128.326 81.8986 128.71 81.1851 128.902 80.0175L129.351 77.9419L131.466 80.0175C132.684 81.1851 133.709 82.0283 133.901 81.8337C134.606 81.0553 134.991 77.3581 134.35 77.3581C133.965 77.3581 133.645 77.9419 133.645 78.6554C133.645 80.4067 132.876 80.277 131.081 78.331C129.095 76.1905 128.646 76.2554 128.133 78.9797Z" fill="#067499"/>
<path d="M10.5989 79.4987C8.86861 80.3419 8.29183 82.2878 9.25313 83.7797C9.70173 84.4284 10.5989 84.5581 12.842 84.2338C15.7259 83.7797 15.7899 83.65 15.4054 82.0284C15.085 80.4716 13.4828 78.6555 12.5856 78.6555C12.3934 78.6555 11.4962 79.0446 10.5989 79.4987ZM14.316 81.7041C14.5082 83.0013 14.2519 83.1959 12.2652 83.1959C10.4067 83.1959 9.95808 82.9365 9.95808 81.9635C9.95808 79.5635 13.9955 79.369 14.316 81.7041Z" fill="#067499"/>
<path d="M12.2011 86.2445C9.57358 86.8932 9.57358 87.931 12.2011 87.4121C15.4695 86.8283 17.3921 85.7905 15.085 85.8553C14.1878 85.9202 12.9061 86.0499 12.2011 86.2445Z" fill="#067499"/>
<path d="M127.364 86.5689C126.403 87.5418 126.339 90.1364 127.3 90.6553C127.685 90.9148 127.877 90.3959 127.749 89.2283C127.557 87.6067 127.749 87.4121 129.479 87.4121C131.53 87.4121 132.555 89.4229 131.017 90.3959C130.569 90.6553 130.376 91.1094 130.633 91.3688C131.274 92.0175 133.004 90.331 133.004 88.9688C133.004 86.3743 129.159 84.7527 127.364 86.5689Z" fill="#067499"/>
<path d="M13.9314 89.1634C13.4828 89.6175 13.1624 90.5904 13.1624 91.4337C13.1624 92.2769 12.8419 92.9256 12.4574 92.9256C12.0088 92.9256 11.8806 92.2769 12.0088 91.304C12.2011 90.3959 12.137 89.6823 11.8806 89.6823C11.0475 89.6823 10.7271 91.2391 11.3039 92.7958C12.137 95.0661 14.0596 94.4174 14.3159 91.758C14.4441 90.3959 14.8927 89.6823 15.5336 89.6823C16.3026 89.6823 16.4308 90.1364 16.1104 91.758C15.7258 93.7688 15.7899 93.8337 16.8153 92.7958C17.7125 91.8877 17.7766 91.3688 17.1357 90.0067C16.3026 88.2553 15.1491 87.931 13.9314 89.1634Z" fill="#067499"/>
<path d="M125.762 93.6391C126.083 95.2607 125.891 95.6499 124.737 95.9742C122.173 96.6228 123.391 97.4661 126.916 97.4661C131.082 97.4661 131.402 96.6877 128.326 93.7039C125.698 91.1094 125.25 91.1094 125.762 93.6391ZM128.518 95.585C128.518 95.9093 128.069 96.1688 127.557 96.1688C126.595 96.1688 126.275 95.3904 126.98 94.6769C127.493 94.158 128.518 94.7418 128.518 95.585Z" fill="#067499"/>
<path d="M17.3921 95.1958C17.1998 95.7147 16.3667 96.1687 15.4695 96.1687C13.3546 96.1687 12.842 97.1417 13.8032 99.4768C14.7645 101.682 14.8286 101.747 18.3534 100.061C21.1091 98.8281 21.1732 98.5038 18.6738 98.7633C17.4562 98.893 17.4562 98.2444 18.6097 95.3255C18.8661 94.7417 18.802 94.2228 18.4175 94.2228C18.097 94.2228 17.6484 94.6768 17.3921 95.1958ZM16.3667 99.6714C15.4054 100.644 14.1878 99.0876 14.7005 97.6606C15.1491 96.5579 15.2132 96.5579 16.1104 97.7255C16.6871 98.5687 16.8153 99.2173 16.3667 99.6714Z" fill="#067499"/>
<path d="M122.75 99.1525C122.75 99.4119 123.263 99.9957 123.904 100.45C124.929 101.228 124.865 101.293 123.391 101.877C122.494 102.201 121.34 102.655 120.828 102.85C120.187 103.044 120.379 103.239 121.34 103.239C122.173 103.304 123.391 103.952 124.032 104.731C125.057 106.028 125.314 106.093 126.275 105.25C126.852 104.731 127.621 103.758 127.877 102.979C128.262 101.942 127.877 101.423 125.826 100.255C123.071 98.6336 122.75 98.5687 122.75 99.1525ZM126.788 101.747C127.3 102.331 126.083 104.601 125.314 104.601C124.929 104.601 124.673 104.082 124.673 103.434C124.673 101.682 125.826 100.774 126.788 101.747Z" fill="#067499"/>
<path d="M21.1732 101.682C21.8781 103.693 21.8781 104.731 21.045 105.055C20.6605 105.185 20.1478 104.731 19.8915 104.017C19.6992 103.239 19.1865 102.655 18.8661 102.655C18.4816 102.655 18.5456 103.239 18.9942 104.017C19.4428 104.925 19.5069 105.574 19.0583 106.028C18.6097 106.482 18.097 106.093 17.3921 104.861C16.8794 103.823 16.4308 103.369 16.3667 103.823C16.3667 104.536 17.3921 107.001 18.0329 107.779C18.097 107.844 19.3788 107.325 20.7887 106.482C23.6085 104.925 23.8007 103.498 21.6859 101.358C20.7887 100.515 20.7246 100.515 21.1732 101.682Z" fill="#067499"/>
<path d="M118.905 105.185C118.905 105.509 119.354 105.963 119.93 106.158C121.468 106.742 120.635 108.039 118.585 108.298C116.149 108.623 115.637 109.142 117.751 109.142C118.841 109.142 119.482 109.596 119.738 110.439C120.187 112.255 122.366 112.06 123.712 110.05C124.288 109.142 124.673 108.298 124.545 108.233C124.416 108.169 123.327 107.261 122.045 106.352C119.61 104.471 118.905 104.212 118.905 105.185ZM122.942 108.233C123.135 108.493 123.071 109.271 122.686 109.92C121.853 111.477 120.443 110.504 121.02 108.882C121.468 107.779 122.238 107.52 122.942 108.233Z" fill="#067499"/>
<path d="M21.6859 108.623C20.5323 109.012 19.571 109.596 19.571 109.855C19.571 110.114 20.4683 110.05 21.5577 109.66C23.993 108.817 24.5057 109.336 23.1599 111.347C22.0063 113.163 21.8782 113.682 22.6472 113.682C23.224 113.682 25.9797 109.401 25.9797 108.493C25.9797 107.715 24.4416 107.779 21.6859 108.623Z" fill="#067499"/>
<path d="M117.175 112.774C118.521 114.071 119.866 114.914 120.059 114.655C120.571 114.136 116.406 110.439 115.38 110.439C115.06 110.439 115.829 111.542 117.175 112.774Z" fill="#067499"/>
<path d="M25.9797 113.358C23.1599 116.341 23.7367 116.731 26.8769 114.006C28.2227 112.904 29.0558 111.736 28.7354 111.542C28.415 111.282 27.1332 112.125 25.9797 113.358Z" fill="#067499"/>
<path d="M27.9023 115.628C25.7874 118.287 25.9156 119.066 28.0945 117.12C29.2481 116.017 29.3122 116.017 29.1199 118.352C28.9917 119.65 29.0558 120.882 29.2481 121.077C29.4403 121.271 30.5939 120.428 31.7475 119.196C34.0546 116.796 33.9905 115.174 31.6834 117.314L30.3376 118.547L30.7862 116.212C31.427 112.839 30.2735 112.579 27.9023 115.628Z" fill="#067499"/>
<path d="M111.855 114.331C110.253 115.952 110.253 116.406 111.727 118.222C112.432 119.131 113.586 119.649 114.803 119.649C115.829 119.649 116.854 119.974 117.111 120.428C117.367 120.817 117.495 119.714 117.367 117.963C117.111 113.358 114.483 111.671 111.855 114.331ZM115.572 115.109C116.662 116.212 116.534 118.222 115.316 118.677C113.97 119.195 111.535 116.731 112.048 115.368C112.496 114.136 114.483 114.006 115.572 115.109Z" fill="#067499"/>
<path d="M108.908 119.195L109.997 120.817L107.305 120.428L104.55 119.974L105.96 121.92C107.626 124.255 109.292 125.747 109.292 124.839C109.292 124.514 108.843 123.866 108.331 123.412C106.729 122.05 107.241 121.531 109.613 122.309C112.625 123.217 112.945 122.633 110.894 119.909C108.908 117.25 107.305 116.731 108.908 119.195Z" fill="#067499"/>
<path d="M33.0291 120.882C31.1066 123.541 31.9397 124.06 34.0545 121.531C35.5926 119.65 35.913 119.52 36.7462 120.428C37.5793 121.271 37.5152 121.596 36.2976 123.152C34.2468 125.812 34.7595 126.655 36.8743 124.06C39.1174 121.466 39.1174 121.271 37.7715 119.909C36.2335 118.352 34.5672 118.677 33.0291 120.882Z" fill="#067499"/>
<path d="M100.769 125.747C99.8714 126.72 100.384 127.952 101.666 127.952C102.563 127.952 102.883 127.628 102.755 126.849C102.563 125.682 101.474 125.098 100.769 125.747Z" fill="#067499"/>
<path d="M41.04 126.655C40.7837 127.109 40.8478 127.693 41.2323 128.082C42.1295 128.99 44.1162 128.212 43.7958 127.109C43.4112 126.071 41.6168 125.747 41.04 126.655Z" fill="#067499"/>
<path d="M50.8452 131.001C49.7557 134.049 49.8839 135.606 50.9734 133.79C51.2938 133.271 51.6783 132.558 51.8065 132.298C51.8706 131.974 52.5114 131.974 53.0882 132.233C53.9854 132.558 54.1777 133.076 53.9213 134.179C53.2164 137.033 54.6904 135.801 55.7158 132.687C56.8052 129.444 56.613 128.277 55.2031 130.222C54.0495 131.844 51.9987 131.066 52.5755 129.249C53.4087 126.525 51.8706 128.082 50.8452 131.001Z" fill="#067499"/>
<path d="M88.8485 128.99C87.2463 130.158 87.1182 132.622 88.5281 134.049C91.3479 136.903 95.6417 132.947 93.1423 129.768C91.8606 128.212 90.3225 127.952 88.8485 128.99ZM92.1169 130.871C92.6296 132.103 92.6296 132.687 91.9887 133.401C90.8993 134.763 88.7844 133.595 88.7844 131.585C88.7844 128.795 90.9633 128.276 92.1169 130.871Z" fill="#067499"/>
<path d="M58.4075 130.936C58.2152 131.52 58.0229 132.947 58.0229 134.179C58.0229 135.93 58.3434 136.449 59.561 136.774C60.4582 136.968 61.4195 136.968 61.804 136.774C62.8294 136.125 63.8548 131.649 63.1499 130.936C62.7653 130.547 62.3808 131.325 62.1245 133.076C61.6759 136.06 60.9709 136.839 59.6892 135.801C59.1124 135.282 58.9842 134.309 59.3047 132.493C59.7533 129.963 59.1765 128.925 58.4075 130.936Z" fill="#067499"/>
<path d="M84.2984 131.325C84.2984 132.687 83.9779 133.141 83.0166 133.141C82.2476 133.141 81.4785 132.558 81.1581 131.714C80.3891 129.509 79.9405 131.26 80.5813 134.244C81.1581 137.098 82.5039 138.136 82.1835 135.606C82.1194 134.503 82.4398 134.049 83.5293 133.92C84.6188 133.725 84.9392 134.049 84.9392 135.022C84.9392 135.801 85.1956 136.385 85.516 136.385C86.2209 136.385 85.7083 132.104 84.8751 130.547C84.4906 129.833 84.3624 130.028 84.2984 131.325Z" fill="#067499"/>
<path d="M66.0337 134.374C64.752 137.033 64.6238 137.682 65.3928 137.682C65.9055 137.682 66.3541 137.357 66.3541 137.033C66.3541 136.06 69.4303 136.255 69.7507 137.163C69.8789 137.617 70.2634 137.811 70.5198 137.552C71.0965 136.968 69.3662 131.649 68.4049 131.325C68.0204 131.195 66.9309 132.557 66.0337 134.374ZM68.9176 134.503C68.9176 134.828 68.469 135.087 67.9563 135.087C67.3795 135.087 67.1873 134.698 67.3795 134.114C67.764 133.141 68.9176 133.401 68.9176 134.503Z" fill="#067499"/>
<path d="M73.5318 131.974C72.5705 132.947 72.5705 135.93 73.5318 136.903C74.6212 138.006 76.9283 137.876 77.8896 136.709C78.7869 135.606 77.8896 135.347 76.8002 136.449C75.5825 137.682 74.0445 136.579 74.0445 134.503C74.0445 132.493 75.3903 131.52 76.5438 132.687C77.3769 133.53 78.2101 132.882 77.5692 131.909C77.0565 130.936 74.4931 131.001 73.5318 131.974Z" fill="#067499"/>
</svg>
