<svg width="32" height="32" viewBox="0 0 32 32" fill="none" xmlns="http://www.w3.org/2000/svg">
<g clip-path="url(#clip0_152_82)">
<path d="M31.5944 4.93715C31.2769 4.5731 30.8197 4.36365 30.3377 4.36365H7.36582L7.04166 2.42869C6.90868 1.62744 6.21548 1.03897 5.4026 1.03897H1.66234C0.743065 1.03897 0 1.78204 0 2.70131C0 3.62058 0.743065 4.36365 1.66234 4.36365H3.9946L7.08655 22.922C7.09984 22.9968 7.13808 23.0583 7.16135 23.1281C7.18795 23.2162 7.20956 23.2993 7.25112 23.3791C7.30431 23.4888 7.37579 23.5819 7.4506 23.6767C7.50213 23.7415 7.54868 23.8063 7.60852 23.8629C7.70494 23.9526 7.81631 24.0158 7.92935 24.079C7.99252 24.1139 8.04738 24.1604 8.11553 24.187C8.30836 24.2652 8.51117 24.3117 8.72561 24.3117C8.72727 24.3117 27.013 24.3117 27.013 24.3117C27.9323 24.3117 28.6753 23.5686 28.6753 22.6494C28.6753 21.7301 27.9323 20.987 27.013 20.987H10.1353L9.85933 19.3247H28.6753C29.5032 19.3247 30.2047 18.7163 30.321 17.8984L31.9834 6.26204C32.0515 5.78328 31.9086 5.29954 31.5944 4.93715ZM28.421 7.68832L27.9472 11.013H22.026V7.68832H28.421ZM20.3636 7.68832V11.013H15.3766V7.68832H20.3636ZM20.3636 12.6753V16H15.3766V12.6753H20.3636ZM13.7143 7.68832V11.013H8.72727C8.63917 11.013 8.55938 11.0379 8.48125 11.0629L7.91938 7.68832H13.7143ZM8.75055 12.6753H13.7143V16H9.3041L8.75055 12.6753ZM22.026 16V12.6753H27.7078L27.2341 16H22.026Z" fill="white"/>
<path d="M11.2208 30.961C12.5979 30.961 13.7143 29.8447 13.7143 28.4675C13.7143 27.0904 12.5979 25.974 11.2208 25.974C9.84368 25.974 8.72729 27.0904 8.72729 28.4675C8.72729 29.8447 9.84368 30.961 11.2208 30.961Z" fill="white"/>
<path d="M26.1817 30.961C27.5589 30.961 28.6752 29.8447 28.6752 28.4675C28.6752 27.0904 27.5589 25.974 26.1817 25.974C24.8046 25.974 23.6882 27.0904 23.6882 28.4675C23.6882 29.8447 24.8046 30.961 26.1817 30.961Z" fill="white"/>
</g>
<defs>
<clipPath id="clip0_152_82">
<rect width="32" height="32" fill="white"/>
</clipPath>
</defs>
</svg>
