<svg width="350" height="110" viewBox="0 0 350 110" fill="none" xmlns="http://www.w3.org/2000/svg">
<path d="M32.1365 95.0001L39.8638 48.4547H70.6819L69.3183 56.5683H48.341L46.5229 67.6592H65.4547L64.091 75.7728H45.1592L41.9774 95.0001H32.1365ZM78.8183 95.6592C76.6062 95.6592 74.6895 95.2728 73.0683 94.5001C71.4622 93.7122 70.2804 92.5456 69.5228 91.0001C68.7653 89.4547 68.5759 87.538 68.9547 85.2501C69.288 83.3107 69.9168 81.6895 70.841 80.3865C71.7804 79.0683 72.9244 78.0077 74.2728 77.2047C75.6213 76.4016 77.1138 75.788 78.7501 75.3638C80.4016 74.9395 82.1062 74.6516 83.8638 74.5001C85.8941 74.288 87.5456 74.0835 88.8183 73.8865C90.1062 73.6895 91.0683 73.4092 91.7047 73.0456C92.341 72.6668 92.7274 72.1062 92.8638 71.3638V71.2274C93.091 69.8032 92.8259 68.6971 92.0683 67.9092C91.3259 67.1062 90.1365 66.7047 88.5001 66.7047C86.7729 66.7047 85.3032 67.0835 84.091 67.841C82.8941 68.5986 82.038 69.5607 81.5229 70.7274L72.7047 70.0001C73.4925 67.8789 74.6819 66.0456 76.2729 64.5001C77.8789 62.9395 79.8107 61.7425 82.0683 60.9092C84.3259 60.0607 86.8562 59.6365 89.6592 59.6365C91.5986 59.6365 93.4092 59.8638 95.091 60.3183C96.788 60.7728 98.2501 61.4774 99.4774 62.4319C100.72 63.3865 101.614 64.6138 102.159 66.1138C102.72 67.5986 102.833 69.3789 102.5 71.4547L98.5683 95.0001H89.3865L90.2047 90.1592H89.9319C89.1895 91.2501 88.2804 92.2122 87.2047 93.0456C86.1289 93.8638 84.8941 94.5077 83.5001 94.9774C82.1062 95.4319 80.5456 95.6592 78.8183 95.6592ZM82.7047 88.9774C84.1138 88.9774 85.4092 88.6971 86.591 88.1365C87.788 87.5607 88.7729 86.788 89.5456 85.8183C90.3335 84.8486 90.8335 83.7501 91.0456 82.5228L91.6365 78.8183C91.3335 79.0153 90.8941 79.1895 90.3183 79.341C89.7577 79.4925 89.1441 79.6365 88.4774 79.7728C87.8259 79.8941 87.1668 80.0077 86.5001 80.1138C85.8335 80.2047 85.235 80.2956 84.7047 80.3865C83.538 80.5532 82.4925 80.8183 81.5683 81.1819C80.6441 81.5456 79.8941 82.038 79.3183 82.6592C78.7425 83.2653 78.3865 84.0228 78.2501 84.9319C78.038 86.2501 78.3486 87.2577 79.1819 87.9547C80.0304 88.6365 81.2047 88.9774 82.7047 88.9774ZM130.943 80.1365L134.284 60.091H143.966L138.148 95.0001H128.852L129.898 88.6592H129.534C128.458 90.7047 126.89 92.3486 124.83 93.591C122.769 94.8335 120.428 95.4547 117.807 95.4547C115.474 95.4547 113.504 94.9244 111.898 93.8638C110.307 92.8032 109.178 91.2956 108.511 89.341C107.845 87.3865 107.731 85.0456 108.171 82.3183L111.898 60.091H121.58L118.171 80.591C117.852 82.6516 118.14 84.2804 119.034 85.4774C119.928 86.6744 121.292 87.2728 123.125 87.2728C124.292 87.2728 125.421 87.0077 126.511 86.4774C127.618 85.9319 128.572 85.1289 129.375 84.0683C130.178 83.0077 130.701 81.6971 130.943 80.1365ZM179.051 70.0456L170.256 70.591C170.21 69.8183 169.998 69.1289 169.619 68.5228C169.256 67.9016 168.718 67.4092 168.006 67.0456C167.309 66.6819 166.43 66.5001 165.369 66.5001C163.779 66.5001 162.362 66.8638 161.119 67.591C159.877 68.3183 159.172 69.2501 159.006 70.3865C158.869 71.1138 159.059 71.7274 159.574 72.2274C160.089 72.7274 161.127 73.1516 162.688 73.5001L168.824 74.7728C172.097 75.4698 174.46 76.6289 175.915 78.2501C177.385 79.8713 177.907 81.9925 177.483 84.6138C177.104 86.841 176.127 88.788 174.551 90.4547C172.976 92.1062 170.976 93.3941 168.551 94.3183C166.127 95.2274 163.438 95.6819 160.483 95.6819C155.741 95.6819 152.135 94.7122 149.665 92.7728C147.195 90.8335 146.006 88.2047 146.097 84.8865L155.551 84.3865C155.627 85.8107 156.127 86.8865 157.051 87.6138C157.976 88.3259 159.241 88.6895 160.847 88.7047C162.65 88.735 164.18 88.3638 165.438 87.591C166.71 86.8032 167.43 85.8486 167.597 84.7274C167.718 83.9395 167.491 83.3032 166.915 82.8183C166.354 82.3335 165.324 81.9319 163.824 81.6138L158.006 80.4092C154.703 79.7274 152.332 78.5077 150.892 76.7501C149.453 74.9925 148.96 72.7577 149.415 70.0456C149.779 67.8789 150.68 66.0228 152.119 64.4774C153.574 62.9168 155.445 61.7198 157.733 60.8865C160.036 60.0532 162.635 59.6365 165.529 59.6365C170.059 59.6365 173.468 60.5683 175.756 62.4319C178.059 64.2956 179.157 66.8335 179.051 70.0456ZM206.216 60.091L205.011 67.3638H183.966L185.193 60.091H206.216ZM191.33 51.7274H201.011L195.602 84.2728C195.451 85.1668 195.474 85.8638 195.671 86.3638C195.868 86.8486 196.193 87.1895 196.648 87.3865C197.118 87.5835 197.678 87.6819 198.33 87.6819C198.784 87.6819 199.246 87.6441 199.716 87.5683C200.186 87.4774 200.542 87.4092 200.784 87.3638L201.148 94.5683C200.602 94.735 199.868 94.9168 198.943 95.1138C198.034 95.3107 196.958 95.4319 195.716 95.4774C193.352 95.5683 191.352 95.2577 189.716 94.5456C188.08 93.8183 186.905 92.7047 186.193 91.2047C185.481 89.7047 185.33 87.8183 185.739 85.5456L191.33 51.7274ZM206.705 95.0001L212.523 60.091H222.205L216.386 95.0001H206.705ZM218.364 55.5456C216.924 55.5456 215.735 55.0683 214.796 54.1138C213.871 53.1441 213.493 51.9925 213.659 50.6592C213.826 49.2956 214.477 48.1441 215.614 47.2047C216.75 46.2501 218.038 45.7728 219.477 45.7728C220.917 45.7728 222.091 46.2501 223 47.2047C223.909 48.1441 224.288 49.2956 224.136 50.6592C223.985 51.9925 223.341 53.1441 222.205 54.1138C221.083 55.0683 219.803 55.5456 218.364 55.5456ZM224.324 95.0001L232.051 48.4547H250.415C253.93 48.4547 256.816 49.1289 259.074 50.4774C261.347 51.8107 262.938 53.6668 263.847 56.0456C264.771 58.4092 264.983 61.1365 264.483 64.2274C263.968 67.3335 262.847 70.0683 261.119 72.4319C259.407 74.7804 257.18 76.6138 254.438 77.9319C251.695 79.2501 248.529 79.9092 244.938 79.9092H233.233L234.529 72.0228H244.642C246.551 72.0228 248.18 71.6971 249.529 71.0456C250.892 70.3789 251.976 69.4622 252.779 68.2956C253.582 67.1138 254.104 65.7577 254.347 64.2274C254.604 62.6668 254.521 61.3107 254.097 60.1592C253.672 59.0077 252.892 58.1138 251.756 57.4774C250.635 56.8259 249.127 56.5001 247.233 56.5001H240.597L234.165 95.0001H224.324ZM274.506 95.6592C272.294 95.6592 270.377 95.2728 268.756 94.5001C267.15 93.7122 265.968 92.5456 265.21 91.0001C264.453 89.4547 264.263 87.538 264.642 85.2501C264.976 83.3107 265.604 81.6895 266.529 80.3865C267.468 79.0683 268.612 78.0077 269.96 77.2047C271.309 76.4016 272.801 75.788 274.438 75.3638C276.089 74.9395 277.794 74.6516 279.551 74.5001C281.582 74.288 283.233 74.0835 284.506 73.8865C285.794 73.6895 286.756 73.4092 287.392 73.0456C288.029 72.6668 288.415 72.1062 288.551 71.3638V71.2274C288.779 69.8032 288.513 68.6971 287.756 67.9092C287.013 67.1062 285.824 66.7047 284.188 66.7047C282.46 66.7047 280.991 67.0835 279.779 67.841C278.582 68.5986 277.726 69.5607 277.21 70.7274L268.392 70.0001C269.18 67.8789 270.369 66.0456 271.96 64.5001C273.566 62.9395 275.498 61.7425 277.756 60.9092C280.013 60.0607 282.544 59.6365 285.347 59.6365C287.286 59.6365 289.097 59.8638 290.779 60.3183C292.476 60.7728 293.938 61.4774 295.165 62.4319C296.407 63.3865 297.301 64.6138 297.847 66.1138C298.407 67.5986 298.521 69.3789 298.188 71.4547L294.256 95.0001H285.074L285.892 90.1592H285.619C284.877 91.2501 283.968 92.2122 282.892 93.0456C281.816 93.8638 280.582 94.5077 279.188 94.9774C277.794 95.4319 276.233 95.6592 274.506 95.6592ZM278.392 88.9774C279.801 88.9774 281.097 88.6971 282.279 88.1365C283.476 87.5607 284.46 86.788 285.233 85.8183C286.021 84.8486 286.521 83.7501 286.733 82.5228L287.324 78.8183C287.021 79.0153 286.582 79.1895 286.006 79.341C285.445 79.4925 284.832 79.6365 284.165 79.7728C283.513 79.8941 282.854 80.0077 282.188 80.1138C281.521 80.2047 280.922 80.2956 280.392 80.3865C279.226 80.5532 278.18 80.8183 277.256 81.1819C276.332 81.5456 275.582 82.038 275.006 82.6592C274.43 83.2653 274.074 84.0228 273.938 84.9319C273.726 86.2501 274.036 87.2577 274.869 87.9547C275.718 88.6365 276.892 88.9774 278.392 88.9774ZM304.358 108.091C303.116 108.091 301.979 107.993 300.949 107.796C299.919 107.614 299.07 107.379 298.404 107.091L301.813 99.8638C302.888 100.212 303.866 100.394 304.744 100.409C305.638 100.424 306.457 100.197 307.199 99.7274C307.941 99.2577 308.623 98.485 309.244 97.4092L310.108 95.9319L303.563 60.091H313.381L316.335 85.7728H316.699L328.267 60.091H338.881L318.904 98.7728C317.919 100.667 316.752 102.311 315.404 103.705C314.07 105.099 312.487 106.174 310.654 106.932C308.835 107.705 306.737 108.091 304.358 108.091Z" fill="white"/>
<path d="M19.4055 78.0001L20.0994 76.0001H36.3097L36.0844 78.0001H19.4055Z" stroke="white" stroke-width="2"/>
<path d="M11.8277 91.4175L12.4791 90H32.8366L32.5328 92H11.56L11.8277 91.4175L11.8277 91.4175Z" stroke="white" stroke-width="2"/>
<path d="M16.5444 66.0001L17.4411 64.0001H37.1781L36.9219 66.0001H16.5444Z" stroke="white" stroke-width="2"/>
<path d="M22.508 52.0001L23.3527 50.0001H39.3191L39.1107 52.0001H22.508Z" stroke="white" stroke-width="2"/>
<path d="M323.061 64.6637C331.928 48.4748 309.133 32.4677 273.219 24.6702" stroke="white" stroke-width="0.6"/>
<path d="M323.061 64.6637L326.034 59.815C331.817 46.1901 313.539 31.2542 272.708 21.0795L273.219 24.6702" stroke="white" stroke-width="0.6"/>
<path d="M272.555 16.1513C313.489 28.3277 326.756 40.4512 328.086 51.0707C327.781 37.3627 309.237 22.9159 272.197 11.0702L272.555 16.1513Z" stroke="white" stroke-width="0.5"/>
<path d="M272.147 6.85997C296.174 16.08 303.294 21.0598 311.952 26.5418C294.646 14.3597 283.464 10.1597 272.147 5.57624L272.147 6.85997Z" stroke="white" stroke-width="0.5"/>
<path d="M18.5001 51.0675C18.5001 52.2093 17.6047 53.1349 16.5001 53.1349C15.3956 53.1349 14.5001 52.2093 14.5001 51.0675C14.5001 49.9257 15.3956 49.0001 16.5001 49.0001C17.6047 49.0001 18.5001 49.9257 18.5001 51.0675Z" fill="white"/>
<path d="M12.5001 65.0675C12.5001 66.2093 11.6047 67.1349 10.5001 67.1349C9.39556 67.1349 8.50013 66.2093 8.50013 65.0675C8.50013 63.9257 9.39556 63.0001 10.5001 63.0001C11.6047 63.0001 12.5001 63.9257 12.5001 65.0675Z" fill="white"/>
<path d="M15.0001 76.9327C15.0001 78.0745 14.1047 79.0001 13.0001 79.0001C11.8956 79.0001 11.0001 78.0745 11.0001 76.9327C11.0001 75.7909 11.8956 74.8653 13.0001 74.8653C14.1047 74.8653 15.0001 75.7909 15.0001 76.9327Z" fill="white"/>
<path d="M4.5 91.1417C4.5 92.2835 3.60457 93.2091 2.5 93.2091C1.39543 93.2091 0.5 92.2835 0.5 91.1417C0.5 89.9999 1.39543 89.0743 2.5 89.0743C3.60457 89.0743 4.5 89.9999 4.5 91.1417Z" fill="white"/>
<path d="M23.5348 51.0348C23.5348 52.1585 22.6239 53.0695 21.5001 53.0695C20.3764 53.0695 19.4654 52.1585 19.4654 51.0348C19.4654 49.9111 20.3764 49.0001 21.5001 49.0001C22.6239 49.0001 24.792 49.0001 23.5348 51.0348Z" fill="white"/>
<path d="M17.5348 65.089C17.5348 66.2127 16.6238 67.0102 15.5001 67.0102C14.3764 67.0102 13.3267 66.2127 13.3267 65.089C13.3267 63.9652 14.3764 62.8406 15.5001 62.8406C16.6238 62.8406 19.5695 63.0542 17.5348 65.089Z" fill="white"/>
<path d="M21.0001 75.9686C21.0001 77.0924 19.1238 79.0001 18.0001 79.0001C16.8764 79.0001 15.9654 78.0891 15.9654 76.9654C15.9654 75.8417 16.8764 74.9307 18.0001 74.9307C19.1238 74.9307 21.0001 74.8449 21.0001 75.9686Z" fill="white"/>
<path d="M13 90.4907C13 91.6144 11.1237 92.9639 10 92.9639C8.87626 92.9639 8.03471 92.0876 8.03471 90.9639C8.03471 89.8401 8.87626 88.9907 10 88.9907C11.1237 88.9907 15.0346 88.456 13 90.4907Z" fill="white"/>
</svg>
