<svg width="311" height="108" viewBox="0 0 311 108" fill="none" xmlns="http://www.w3.org/2000/svg">
<path d="M24.8523 84L30.6477 49.0909H53.7614L52.7386 55.1761H37.0057L35.642 63.4943H49.8409L48.8182 69.5795H34.6193L32.233 84H24.8523ZM59.8636 84.4943C58.2045 84.4943 56.767 84.2045 55.5511 83.625C54.3466 83.0341 53.4602 82.1591 52.892 81C52.3239 79.8409 52.1818 78.4034 52.4659 76.6875C52.7159 75.233 53.1875 74.017 53.8807 73.0398C54.5852 72.0511 55.4432 71.2557 56.4545 70.6534C57.4659 70.0511 58.5852 69.5909 59.8125 69.2727C61.0511 68.9545 62.3295 68.7386 63.6477 68.625C65.1705 68.4659 66.4091 68.3125 67.3636 68.1648C68.3295 68.017 69.0511 67.8068 69.5284 67.5341C70.0057 67.25 70.2955 66.8295 70.3977 66.2727V66.1705C70.5682 65.1023 70.3693 64.2727 69.8011 63.6818C69.2443 63.0795 68.3523 62.7784 67.125 62.7784C65.8295 62.7784 64.7273 63.0625 63.8182 63.6307C62.9205 64.1989 62.2784 64.9205 61.892 65.7955L55.2784 65.25C55.8693 63.6591 56.7614 62.2841 57.9545 61.125C59.1591 59.9545 60.608 59.0568 62.3011 58.4318C63.9943 57.7955 65.892 57.4773 67.9943 57.4773C69.4489 57.4773 70.8068 57.6477 72.0682 57.9886C73.3409 58.3295 74.4375 58.858 75.358 59.5739C76.2898 60.2898 76.9602 61.2102 77.3693 62.3352C77.7898 63.4489 77.875 64.7841 77.625 66.3409L74.6761 84H67.7898L68.4034 80.3693H68.1989C67.642 81.1875 66.9602 81.9091 66.1534 82.5341C65.3466 83.1477 64.4205 83.6307 63.375 83.983C62.3295 84.3239 61.1591 84.4943 59.8636 84.4943ZM62.7784 79.483C63.8352 79.483 64.8068 79.2727 65.6932 78.8523C66.5909 78.4205 67.3295 77.8409 67.9091 77.1136C68.5 76.3864 68.875 75.5625 69.0341 74.642L69.4773 71.8636C69.25 72.0114 68.9205 72.142 68.4886 72.2557C68.0682 72.3693 67.608 72.4773 67.108 72.5795C66.6193 72.6705 66.125 72.7557 65.625 72.8352C65.125 72.9034 64.6761 72.9716 64.2784 73.0398C63.4034 73.1648 62.6193 73.3636 61.9261 73.6364C61.233 73.9091 60.6705 74.2784 60.2386 74.7443C59.8068 75.1989 59.5398 75.767 59.4375 76.4489C59.2784 77.4375 59.5114 78.1932 60.1364 78.7159C60.7727 79.2273 61.6534 79.483 62.7784 79.483ZM98.9574 72.8523L101.463 57.8182H108.724L104.361 84H97.3892L98.1733 79.2443H97.9006C97.0938 80.7784 95.9176 82.0114 94.3722 82.9432C92.8267 83.875 91.071 84.3409 89.1051 84.3409C87.3551 84.3409 85.8778 83.9432 84.6733 83.1477C83.4801 82.3523 82.6335 81.2216 82.1335 79.7557C81.6335 78.2898 81.5483 76.5341 81.8778 74.4886L84.6733 57.8182H91.9347L89.3778 73.1932C89.1392 74.7386 89.3551 75.9602 90.0256 76.858C90.696 77.7557 91.7188 78.2045 93.0938 78.2045C93.9688 78.2045 94.8153 78.0057 95.6335 77.608C96.4631 77.1989 97.179 76.5966 97.7812 75.8011C98.3835 75.0057 98.7756 74.0227 98.9574 72.8523ZM135.038 65.2841L128.442 65.6932C128.408 65.1136 128.249 64.5966 127.964 64.142C127.692 63.6761 127.288 63.3068 126.754 63.0341C126.232 62.7614 125.572 62.625 124.777 62.625C123.584 62.625 122.521 62.8977 121.589 63.4432C120.658 63.9886 120.129 64.6875 120.004 65.5398C119.902 66.0852 120.044 66.5455 120.43 66.9205C120.817 67.2955 121.595 67.6136 122.766 67.875L127.368 68.8295C129.822 69.3523 131.595 70.2216 132.686 71.4375C133.788 72.6534 134.18 74.2443 133.862 76.2102C133.578 77.8807 132.845 79.3409 131.663 80.5909C130.482 81.8295 128.982 82.7955 127.163 83.4886C125.345 84.1705 123.328 84.5114 121.112 84.5114C117.555 84.5114 114.851 83.7841 112.999 82.3295C111.146 80.875 110.254 78.9034 110.322 76.4148L117.413 76.0398C117.47 77.108 117.845 77.9148 118.538 78.4602C119.232 78.9943 120.18 79.267 121.385 79.2784C122.737 79.3011 123.885 79.0227 124.828 78.4432C125.783 77.8523 126.322 77.1364 126.447 76.2955C126.538 75.7045 126.368 75.2273 125.936 74.8636C125.516 74.5 124.743 74.1989 123.618 73.9602L119.254 73.0568C116.777 72.5455 114.999 71.6307 113.919 70.3125C112.839 68.9943 112.47 67.3182 112.811 65.2841C113.084 63.6591 113.76 62.267 114.839 61.108C115.93 59.9375 117.334 59.0398 119.05 58.4148C120.777 57.7898 122.726 57.4773 124.896 57.4773C128.294 57.4773 130.851 58.1761 132.567 59.5739C134.294 60.9716 135.118 62.875 135.038 65.2841ZM155.412 57.8182L154.509 63.2727H138.724L139.645 57.8182H155.412ZM144.247 51.5455H151.509L147.452 75.9545C147.338 76.625 147.355 77.1477 147.503 77.5227C147.651 77.8864 147.895 78.142 148.236 78.2898C148.588 78.4375 149.009 78.5114 149.497 78.5114C149.838 78.5114 150.185 78.483 150.537 78.4261C150.889 78.358 151.156 78.3068 151.338 78.2727L151.611 83.6761C151.202 83.8011 150.651 83.9375 149.957 84.0852C149.276 84.233 148.469 84.3239 147.537 84.358C145.764 84.4261 144.264 84.1932 143.037 83.6591C141.81 83.1136 140.929 82.2784 140.395 81.1534C139.861 80.0284 139.747 78.6136 140.054 76.9091L144.247 51.5455ZM155.778 84L160.142 57.8182H167.403L163.04 84H155.778ZM164.523 54.4091C163.443 54.4091 162.551 54.0511 161.847 53.3352C161.153 52.608 160.869 51.7443 160.994 50.7443C161.119 49.7216 161.608 48.858 162.46 48.1534C163.313 47.4375 164.278 47.0795 165.358 47.0795C166.438 47.0795 167.318 47.4375 168 48.1534C168.682 48.858 168.966 49.7216 168.852 50.7443C168.739 51.7443 168.256 52.608 167.403 53.3352C166.563 54.0511 165.602 54.4091 164.523 54.4091ZM168.993 84L174.788 49.0909H188.561C191.197 49.0909 193.362 49.5966 195.055 50.608C196.76 51.608 197.953 53 198.635 54.7841C199.328 56.5568 199.487 58.6023 199.112 60.9205C198.726 63.25 197.885 65.3011 196.589 67.0739C195.305 68.8352 193.635 70.2102 191.578 71.1989C189.521 72.1875 187.146 72.6818 184.453 72.6818H175.675L176.646 66.767H184.232C185.663 66.767 186.885 66.5227 187.896 66.0341C188.919 65.5341 189.732 64.8466 190.334 63.9716C190.936 63.0852 191.328 62.0682 191.51 60.9205C191.703 59.75 191.641 58.733 191.322 57.8693C191.004 57.0057 190.419 56.3352 189.567 55.858C188.726 55.3693 187.595 55.125 186.175 55.125H181.197L176.374 84H168.993ZM206.629 84.4943C204.97 84.4943 203.533 84.2045 202.317 83.625C201.112 83.0341 200.226 82.1591 199.658 81C199.089 79.8409 198.947 78.4034 199.232 76.6875C199.482 75.233 199.953 74.017 200.646 73.0398C201.351 72.0511 202.209 71.2557 203.22 70.6534C204.232 70.0511 205.351 69.5909 206.578 69.2727C207.817 68.9545 209.095 68.7386 210.413 68.625C211.936 68.4659 213.175 68.3125 214.129 68.1648C215.095 68.017 215.817 67.8068 216.294 67.5341C216.771 67.25 217.061 66.8295 217.163 66.2727V66.1705C217.334 65.1023 217.135 64.2727 216.567 63.6818C216.01 63.0795 215.118 62.7784 213.891 62.7784C212.595 62.7784 211.493 63.0625 210.584 63.6307C209.686 64.1989 209.044 64.9205 208.658 65.7955L202.044 65.25C202.635 63.6591 203.527 62.2841 204.72 61.125C205.925 59.9545 207.374 59.0568 209.067 58.4318C210.76 57.7955 212.658 57.4773 214.76 57.4773C216.214 57.4773 217.572 57.6477 218.834 57.9886C220.107 58.3295 221.203 58.858 222.124 59.5739C223.055 60.2898 223.726 61.2102 224.135 62.3352C224.555 63.4489 224.641 64.7841 224.391 66.3409L221.442 84H214.555L215.169 80.3693H214.964C214.408 81.1875 213.726 81.9091 212.919 82.5341C212.112 83.1477 211.186 83.6307 210.141 83.983C209.095 84.3239 207.925 84.4943 206.629 84.4943ZM209.544 79.483C210.601 79.483 211.572 79.2727 212.459 78.8523C213.357 78.4205 214.095 77.8409 214.675 77.1136C215.266 76.3864 215.641 75.5625 215.8 74.642L216.243 71.8636C216.016 72.0114 215.686 72.142 215.254 72.2557C214.834 72.3693 214.374 72.4773 213.874 72.5795C213.385 72.6705 212.891 72.7557 212.391 72.8352C211.891 72.9034 211.442 72.9716 211.044 73.0398C210.169 73.1648 209.385 73.3636 208.692 73.6364C207.999 73.9091 207.436 74.2784 207.004 74.7443C206.572 75.1989 206.305 75.767 206.203 76.4489C206.044 77.4375 206.277 78.1932 206.902 78.7159C207.538 79.2273 208.419 79.483 209.544 79.483ZM229.018 93.8182C228.087 93.8182 227.234 93.7443 226.462 93.5966C225.689 93.4602 225.053 93.2841 224.553 93.0682L227.109 87.6477C227.916 87.9091 228.649 88.0455 229.308 88.0568C229.979 88.0682 230.592 87.8977 231.149 87.5455C231.706 87.1932 232.217 86.6136 232.683 85.8068L233.331 84.6989L228.422 57.8182H235.786L238.001 77.0795H238.274L246.95 57.8182H254.911L239.928 86.8295C239.189 88.25 238.314 89.483 237.303 90.5284C236.303 91.5739 235.115 92.3807 233.74 92.9489C232.376 93.5284 230.803 93.8182 229.018 93.8182Z" fill="#067196"/>
<path d="M240.939 60.2983C249.207 45.2024 227.951 30.2758 194.462 23.0048" stroke="#107A9C" stroke-width="0.6"/>
<path d="M240.939 60.2983L243.711 55.777C249.104 43.0719 232.06 29.1443 193.985 19.6565L194.462 23.0048" stroke="#107A9C" stroke-width="0.6"/>
<path d="M193.842 15.061C232.012 26.4154 244.384 37.7204 245.624 47.623C245.34 34.8404 228.048 21.3689 193.509 10.3229L193.842 15.061Z" stroke="#107A9C" stroke-width="0.5"/>
<path d="M193.462 6.39687C215.867 14.9945 222.507 19.6381 230.579 24.75C214.441 13.3903 204.015 9.47383 193.462 5.1998L193.462 6.39687Z" stroke="#107A9C" stroke-width="0.5"/>
<path d="M15.059 71.9804L15.4478 70.8596H27.6927L27.5664 71.9804H15.059Z" stroke="#107A9C" stroke-width="2"/>
<path d="M9.03755 82.7603L9.48692 81.7823H24.9732L24.8029 82.9031H8.9719L9.03755 82.7603L9.03755 82.7603Z" stroke="#107A9C" stroke-width="2"/>
<path d="M12.8573 62.6182L13.3598 61.4974H28.3664L28.2228 62.6182H12.8573Z" stroke="#107A9C" stroke-width="2"/>
<path d="M17.5018 51.6954L17.9752 50.5746H30.0424L29.9256 51.6954H17.5018Z" stroke="#107A9C" stroke-width="2"/>
<path d="M14.0436 51.1876C14.0436 52.0785 13.345 52.8006 12.4832 52.8006C11.6214 52.8006 10.9228 52.0785 10.9228 51.1876C10.9228 50.2968 11.6214 49.5746 12.4832 49.5746C13.345 49.5746 14.0436 50.2968 14.0436 51.1876Z" fill="#067196"/>
<path d="M9.36244 62.1104C9.36244 63.0012 8.66383 63.7233 7.80205 63.7233C6.94027 63.7233 6.24166 63.0012 6.24166 62.1104C6.24166 61.2195 6.94027 60.4974 7.80205 60.4974C8.66383 60.4974 9.36244 61.2195 9.36244 62.1104Z" fill="#067196"/>
<path d="M11.3129 71.3675C11.3129 72.2583 10.6143 72.9805 9.75254 72.9805C8.89076 72.9805 8.19215 72.2583 8.19215 71.3675C8.19215 70.4767 8.89076 69.7545 9.75254 69.7545C10.6143 69.7545 11.3129 70.4767 11.3129 71.3675Z" fill="#067196"/>
<path d="M3.12078 82.4533C3.12078 83.3441 2.42217 84.0663 1.56039 84.0663C0.69861 84.0663 0 83.3441 0 82.4533C0 81.5625 0.69861 80.8403 1.56039 80.8403C2.42217 80.8403 3.12078 81.5625 3.12078 82.4533Z" fill="#067196"/>
<path d="M17.9718 51.1621C17.9718 52.0388 17.2611 52.7496 16.3844 52.7496C15.5076 52.7496 14.7969 52.0388 14.7969 51.1621C14.7969 50.2854 15.5076 49.5746 16.3844 49.5746C17.2611 49.5746 18.9526 49.5746 17.9718 51.1621Z" fill="#067196"/>
<path d="M13.2906 62.1271C13.2906 63.0038 12.5799 63.626 11.7032 63.626C10.8264 63.626 10.0075 63.0038 10.0075 62.1271C10.0075 61.2503 10.8264 60.373 11.7032 60.373C12.5799 60.373 14.8781 60.5396 13.2906 62.1271Z" fill="#067196"/>
<path d="M15.9942 70.6153C15.9942 71.4921 14.5304 72.9805 13.6536 72.9805C12.7769 72.9805 12.0662 72.2697 12.0662 71.393C12.0662 70.5163 12.7769 69.8055 13.6536 69.8055C14.5304 69.8055 15.9942 69.7386 15.9942 70.6153Z" fill="#067196"/>
<path d="M9.75259 81.9454C9.75259 82.8221 8.28874 83.8749 7.412 83.8749C6.53527 83.8749 5.87869 83.1913 5.87869 82.3145C5.87869 81.4378 6.53527 80.7751 7.412 80.7751C8.28874 80.7751 11.3399 80.3579 9.75259 81.9454Z" fill="#067196"/>
</svg>
